# xmcd CD database file
#
# Track frame offsets:
#	150
#	26589
#	50625
#	70373
#	91465
#	113489
#	131943
#	157543
#	177133
#	199160
#	222561
#	245913
#	265853
#	286676
#	303839
#	326045
#
# Disc length: 4620 seconds
#
# Revision: 1
# Processed by: cddbd v1.4PL0 Copyright (c) Steve Scherf et al.
# Submitted via: CDex 1.50
#
DISCID=e9120a10
DTITLE=Euge Groove - From The Top
DYEAR=2003
DGENRE=Jazz
TTITLE0=From The Top
TTITLE1=Romeo And Juliet
TTITLE2=Belle Maria
TTITLE3=I Can't Take It Anymore
TTITLE4=Tenderhearted Lover
TTITLE5=Lay It Down
TTITLE6=Sneak A Peek
TTITLE7=Hide And Seek
TTITLE8=Love Conditionally 
TTITLE9=Put It Where You Want
TTITLE10=Summer Stroll
TTITLE11=Another Sad Love Song
TTITLE12=Rewind
TTITLE13=Slam Dunk
TTITLE14=Truly Emotional 
TTITLE15=Gonna Be Alright
EXTD=YEAR: 2003
EXTT0=
EXTT1=
EXTT2=
EXTT3=
EXTT4=
EXTT5=
EXTT6=
EXTT7=
EXTT8=
EXTT9=
EXTT10=
EXTT11=
EXTT12=
EXTT13=
EXTT14=
EXTT15=
PLAYORDER=
